{"title":"The Watcher 2000 1080p Esub BluRay Dual Audio English Hindi 5.1 ","magnet":"magnet:?xt=urn:btih:7ae26487bc00858528668146c0c53ed37026f0ad&dn=The+Watcher+2000+1080p+Esub+BluRay+Dual+Audio+English+Hindi+5.1+&tr=udp%3A%2F%2Ftracker.leechers-paradise.org%3A6969&tr=udp%3A%2F%2Fzer0day.ch%3A1337&tr=udp%3A%2F%2Fopen.demonii.com%3A1337&tr=udp%3A%2F%2Ftracker.coppersurfer.tk%3A6969&tr=udp%3A%2F%2Fexodus.desync.com%3A6969","uploader":"jatt13","categoryP":"video","categoryS":"hd___movies","size":"762344842","seeders":"0","leechers":"0","description":"[center][img]http://i.imgur.com/qtBLGSo.png[/img]\r\n[img]http://i.imgur.com/cy8WhoH.png[/img]\r\nVideo\r\nID                             : 1\r\nFormat                         : AVC\r\nCodec ID                       : V_MPEG4/ISO/AVC\r\nDuration                       : 1 h 36 min\r\nBit rate                       : 899 kb/s\r\nWidth                          : 1 920 pixels\r\nHeight                         : 1 040 pixels\r\nDisplay aspect ratio           : 1.85:1\r\nFrame rate mode                : Constant\r\nFrame rate                     : 23.976 (24000/1001) FPS\r\nStream size                    : 618 MiB (85%)\r\nWriting library                : x264 core 130 r2273 b3065e6\r\n\r\nAudio #1\r\nFormat                         : AAC\r\nDuration                       : 1 h 31 min\r\nBit rate                       : 75.6 kb/s\r\nChannel(s)                     : 6 channels\r\nChannel positions              : Front: L C R, Side: L R, LFE\r\nSampling rate                  : 44.1 kHz\r\nFrame rate                     : 43.066 FPS (1024 spf)\r\nStream size                    : 49.7 MiB (7%)\r\nLanguage                       : Hindi\r\n\r\nAudio #2\r\nFormat                         : AAC\r\nDuration                       : 1 h 29 min\r\nBit rate                       : 90.7 kb/s\r\nChannel(s)                     : 6 channels\r\nChannel positions              : Front: L C R, Side: L R, LFE\r\nSampling rate                  : 44.1 kHz\r\nFrame rate                     : 43.066 FPS (1024 spf)\r\nStream size                    : 57.8 MiB (8%)\r\nLanguage                       : English\r\n\r\nText\r\nID                             : 3\r\nDuration                       : 1 h 27 min\r\nStream size                    : 31.5 KiB (0%)\r\nLanguage                       : EnglishNo\r\n[img]http://i.imgur.com/ikXHSDF.png[/img]\r\n[img]http://i.imgur.com/9HJMVvq.jpg[/img]\r\n[img]http://i.imgur.com/dMQkRAT.jpg[/img]\r\n[img]http://i.imgur.com/m9rqZUo.jpg[/img][/center]","last_updated":"2017-06-23T12:04:48.933Z","parsed":{"xt":"urn:btih:7ae26487bc00858528668146c0c53ed37026f0ad","dn":"The Watcher 2000 1080p Esub BluRay Dual Audio English Hindi 5.1 ","tr":["udp://exodus.desync.com:6969","udp://open.demonii.com:1337","udp://tracker.coppersurfer.tk:6969","udp://tracker.leechers-paradise.org:6969","udp://zer0day.ch:1337"],"infoHash":"7ae26487bc00858528668146c0c53ed37026f0ad","infoHashBuffer":{"type":"Buffer","data":[122,226,100,135,188,0,133,133,40,102,129,70,192,197,62,211,112,38,240,173]},"name":"The Watcher 2000 1080p Esub BluRay Dual Audio English Hindi 5.1 ","announce":["udp://exodus.desync.com:6969","udp://open.demonii.com:1337","udp://tracker.coppersurfer.tk:6969","udp://tracker.leechers-paradise.org:6969","udp://zer0day.ch:1337"],"urlList":[]}}